# xmcd CD database file
#
# Track frame offsets:
#	150
#	9999
#	26729
#	36776
#	49998
#	64865
#	78340
#	92086
#	104189
#	111968
#	120492
#	130984
#	137276
#	144149
#	154335
#	161619
#	175477
#	186244
#	194921
#	205561
#	225653
#
# Disc length: 3175 seconds
#
# Revision: 0
# Processed by: cddbd v1.5.2PL0 Copyright (c) Steve Scherf et al.
# Submitted via: CDex 1.51
#
DISCID=270c6515
DTITLE=Regensburger Domspatzen - Es zog manch Lied ins Herz mir ein
DYEAR=2006
DGENRE=Volkslieder
TTITLE0=Es zog manch Lied ins Herz mir ein
TTITLE1=Im Haine
TTITLE2=Goldne Fluren
TTITLE3=Birke am grünen Bergeshang
TTITLE4=Ein Sommertag (Ein Fest hat Gott uns heut bereitet)
TTITLE5=Der Winter ist vergangen
TTITLE6=Im Frühling (Unsre Wiesen grünen wieder)
TTITLE7=Mailied (Drauß ist alles so prächtig)
TTITLE8=Zufriedenheit (Ich bin vergnügt, was will ich mehr?)
TTITLE9=Wünsche der Liebe (Wüßt ich, dass du mich lieb und wert)
TTITLE10=Wach auf, meins Herzens Schöne
TTITLE11=Kommt ein Vogerl geflogen
TTITLE12=Zum Tanze da geht ein Mädel
TTITLE13=Ich sah ein Röschen am Wege stehn
TTITLE14=Erlaube mir, feins Mädchen
TTITLE15=Es leuchten zwei Sterne am Himmel
TTITLE16=Abendlied (Ich stehe in Waldesschatten)
TTITLE17=Ein schöner Tag zu Ende geht
TTITLE18=O du stille Zeit
TTITLE19=Der Mond ist aufgegangen
TTITLE20=Kein schöner Land
EXTD=YEAR: 2006
EXTT0=
EXTT1=
EXTT2=
EXTT3=
EXTT4=
EXTT5=
EXTT6=
EXTT7=
EXTT8=
EXTT9=
EXTT10=
EXTT11=
EXTT12=
EXTT13=
EXTT14=
EXTT15=
EXTT16=
EXTT17=
EXTT18=
EXTT19=
EXTT20=
PLAYORDER=
